<mxfile host="app.diagrams.net" modified="2023-12-09T00:04:38.197Z" agent="Mozilla/5.0 (Macintosh; Intel Mac OS X 10_15_7) AppleWebKit/537.36 (KHTML, like Gecko) Chrome/119.0.0.0 Safari/537.36" etag="9CRo9aBBNQQiuqm4ozIL" version="22.1.7" type="github">
  <diagram name="Page-1" id="JEvV4KB_SrcCvdY6_MqZ">
    <mxGraphModel dx="1306" dy="680" grid="1" gridSize="10" guides="1" tooltips="1" connect="1" arrows="1" fold="1" page="1" pageScale="1" pageWidth="850" pageHeight="1100" math="0" shadow="0">
      <root>
        <mxCell id="0" />
        <mxCell id="1" parent="0" />
        <mxCell id="8MyqyigHdS4ntQqRPGFD-7" style="edgeStyle=orthogonalEdgeStyle;rounded=0;orthogonalLoop=1;jettySize=auto;html=1;exitX=1;exitY=0.25;exitDx=0;exitDy=0;entryX=0;entryY=0.25;entryDx=0;entryDy=0;" parent="1" source="8MyqyigHdS4ntQqRPGFD-1" target="8MyqyigHdS4ntQqRPGFD-6" edge="1">
          <mxGeometry relative="1" as="geometry" />
        </mxCell>
        <mxCell id="8MyqyigHdS4ntQqRPGFD-10" value="3. call APIs with AzureAD B2C&amp;nbsp;&lt;br&gt;access token" style="edgeLabel;html=1;align=center;verticalAlign=middle;resizable=0;points=[];" parent="8MyqyigHdS4ntQqRPGFD-7" vertex="1" connectable="0">
          <mxGeometry x="-0.0636" y="2" relative="1" as="geometry">
            <mxPoint y="-15" as="offset" />
          </mxGeometry>
        </mxCell>
        <mxCell id="8MyqyigHdS4ntQqRPGFD-1" value="Client app" style="whiteSpace=wrap;html=1;aspect=fixed;" parent="1" vertex="1">
          <mxGeometry x="190" y="280" width="110" height="110" as="geometry" />
        </mxCell>
        <mxCell id="8MyqyigHdS4ntQqRPGFD-3" style="edgeStyle=orthogonalEdgeStyle;rounded=0;orthogonalLoop=1;jettySize=auto;html=1;exitX=0.75;exitY=0;exitDx=0;exitDy=0;entryX=0;entryY=0.75;entryDx=0;entryDy=0;entryPerimeter=0;" parent="1" source="8MyqyigHdS4ntQqRPGFD-1" edge="1">
          <mxGeometry relative="1" as="geometry">
            <mxPoint x="500" y="202.5" as="targetPoint" />
            <Array as="points">
              <mxPoint x="273" y="203" />
            </Array>
          </mxGeometry>
        </mxCell>
        <mxCell id="8MyqyigHdS4ntQqRPGFD-4" value="1. call&amp;nbsp;oauth2/v2.0/token&lt;br&gt;using&amp;nbsp;client_credentials grant" style="edgeLabel;html=1;align=center;verticalAlign=middle;resizable=0;points=[];" parent="8MyqyigHdS4ntQqRPGFD-3" vertex="1" connectable="0">
          <mxGeometry x="0.1475" y="-2" relative="1" as="geometry">
            <mxPoint y="16" as="offset" />
          </mxGeometry>
        </mxCell>
        <mxCell id="8MyqyigHdS4ntQqRPGFD-5" value="2. return JWT Access Token" style="edgeStyle=orthogonalEdgeStyle;rounded=0;orthogonalLoop=1;jettySize=auto;html=1;exitX=0;exitY=0.25;exitDx=0;exitDy=0;entryX=0.25;entryY=0;entryDx=0;entryDy=0;exitPerimeter=0;" parent="1" target="8MyqyigHdS4ntQqRPGFD-1" edge="1">
          <mxGeometry x="-0.3253" y="-7" relative="1" as="geometry">
            <mxPoint as="offset" />
            <mxPoint x="500" y="147.5" as="sourcePoint" />
          </mxGeometry>
        </mxCell>
        <mxCell id="8MyqyigHdS4ntQqRPGFD-8" style="edgeStyle=orthogonalEdgeStyle;rounded=0;orthogonalLoop=1;jettySize=auto;html=1;exitX=0;exitY=0.75;exitDx=0;exitDy=0;entryX=1;entryY=0.75;entryDx=0;entryDy=0;" parent="1" source="8MyqyigHdS4ntQqRPGFD-6" target="8MyqyigHdS4ntQqRPGFD-1" edge="1">
          <mxGeometry relative="1" as="geometry" />
        </mxCell>
        <mxCell id="8MyqyigHdS4ntQqRPGFD-12" value="5a. return HTTP 200&amp;nbsp;" style="edgeLabel;html=1;align=center;verticalAlign=middle;resizable=0;points=[];" parent="8MyqyigHdS4ntQqRPGFD-8" vertex="1" connectable="0">
          <mxGeometry x="0.1091" y="-2" relative="1" as="geometry">
            <mxPoint x="22" y="10" as="offset" />
          </mxGeometry>
        </mxCell>
        <mxCell id="8MyqyigHdS4ntQqRPGFD-13" style="edgeStyle=orthogonalEdgeStyle;rounded=0;orthogonalLoop=1;jettySize=auto;html=1;exitX=0.25;exitY=1;exitDx=0;exitDy=0;entryX=0.75;entryY=1;entryDx=0;entryDy=0;dashed=1;" parent="1" source="8MyqyigHdS4ntQqRPGFD-6" target="8MyqyigHdS4ntQqRPGFD-1" edge="1">
          <mxGeometry relative="1" as="geometry">
            <Array as="points">
              <mxPoint x="548" y="440" />
              <mxPoint x="273" y="440" />
            </Array>
          </mxGeometry>
        </mxCell>
        <mxCell id="8MyqyigHdS4ntQqRPGFD-15" value="5b. return HTTP 401 - invalid / expired token" style="edgeLabel;html=1;align=center;verticalAlign=middle;resizable=0;points=[];" parent="8MyqyigHdS4ntQqRPGFD-13" vertex="1" connectable="0">
          <mxGeometry x="0.1333" y="-3" relative="1" as="geometry">
            <mxPoint x="35" y="13" as="offset" />
          </mxGeometry>
        </mxCell>
        <mxCell id="8MyqyigHdS4ntQqRPGFD-14" value="5c. return HTTP 403 - Forbidden" style="edgeStyle=orthogonalEdgeStyle;rounded=0;orthogonalLoop=1;jettySize=auto;html=1;exitX=0.75;exitY=1;exitDx=0;exitDy=0;entryX=0.25;entryY=1;entryDx=0;entryDy=0;dashed=1;" parent="1" source="8MyqyigHdS4ntQqRPGFD-6" target="8MyqyigHdS4ntQqRPGFD-1" edge="1">
          <mxGeometry x="0.0331" y="10" relative="1" as="geometry">
            <Array as="points">
              <mxPoint x="603" y="500" />
              <mxPoint x="218" y="500" />
            </Array>
            <mxPoint x="1" as="offset" />
          </mxGeometry>
        </mxCell>
        <mxCell id="8MyqyigHdS4ntQqRPGFD-6" value="SpringBoot app" style="whiteSpace=wrap;html=1;aspect=fixed;" parent="1" vertex="1">
          <mxGeometry x="520" y="280" width="110" height="110" as="geometry" />
        </mxCell>
        <mxCell id="8MyqyigHdS4ntQqRPGFD-9" style="edgeStyle=orthogonalEdgeStyle;rounded=0;orthogonalLoop=1;jettySize=auto;html=1;exitX=1;exitY=0.25;exitDx=0;exitDy=0;entryX=1;entryY=0.75;entryDx=0;entryDy=0;" parent="1" source="8MyqyigHdS4ntQqRPGFD-6" target="8MyqyigHdS4ntQqRPGFD-6" edge="1">
          <mxGeometry relative="1" as="geometry">
            <Array as="points">
              <mxPoint x="690" y="308" />
              <mxPoint x="690" y="363" />
            </Array>
          </mxGeometry>
        </mxCell>
        <mxCell id="8MyqyigHdS4ntQqRPGFD-11" value="4. Validate the JWT&amp;nbsp;&lt;br&gt;access token &amp;amp; scope" style="edgeLabel;html=1;align=center;verticalAlign=middle;resizable=0;points=[];" parent="8MyqyigHdS4ntQqRPGFD-9" vertex="1" connectable="0">
          <mxGeometry x="-0.1143" y="1" relative="1" as="geometry">
            <mxPoint x="19" y="11" as="offset" />
          </mxGeometry>
        </mxCell>
        <mxCell id="6ptEZeUyd9IOb7qMZ7AC-1" value="" style="shape=image;verticalLabelPosition=bottom;labelBackgroundColor=default;verticalAlign=top;aspect=fixed;imageAspect=0;image=https://res.cloudinary.com/endpoint-systems/image/upload/v1605141522/azure-ad-b2c_fkjvpj.png;" vertex="1" parent="1">
          <mxGeometry x="460" y="100" width="290" height="152.25" as="geometry" />
        </mxCell>
      </root>
    </mxGraphModel>
  </diagram>
</mxfile>
